<?xml version="1.0" encoding="UTF-8"?>
<svg id="_レイヤー_1" data-name="レイヤー 1" xmlns="http://www.w3.org/2000/svg" viewBox="0 0 288.07 250.77">
  <defs>
    <style>
      .cls-1 {
        fill: #fa0;
      }
    </style>
  </defs>
  <path class="cls-1" d="m240.64,77.95c26.15,0,47.43,21.28,47.43,47.43s-21.28,47.43-47.43,47.43v-24c12.92,0,23.43-10.51,23.43-23.43s-10.51-23.43-23.43-23.43v-24Z"/>
  <g>
    <rect class="cls-1" x="60.57" y="69.8" width="30.99" height="111.17"/>
    <path class="cls-1" d="m60.57,57.8h30.99c6.63,0,12,5.37,12,12v111.17c0,6.63-5.37,12-12,12h-30.99c-6.63,0-12-5.37-12-12v-111.17c0-6.63,5.37-12,12-12Zm18.99,24h-6.99v87.17h6.99v-87.17Z"/>
  </g>
  <path class="cls-1" d="m239.82,0c2.38,0,4.75.71,6.77,2.09,3.27,2.24,5.23,5.94,5.23,9.91v226.77c0,3.96-1.96,7.67-5.23,9.91s-7.44,2.71-11.13,1.27l-148.26-57.8c-4.61-1.8-7.64-6.24-7.64-11.18v-111.17c0-4.95,3.03-9.38,7.64-11.18L235.46.82c1.41-.55,2.89-.82,4.36-.82Zm-12,221.21V29.56l-124.26,48.44v94.77l124.26,48.44Z"/>
  <path class="cls-1" d="m12,36.51c1.63,0,3.27.33,4.81,1.01l48.59,21.29c4.36,1.91,7.18,6.23,7.18,10.99v111.17c0,4.77-2.82,9.08-7.18,10.99l-48.59,21.29c-3.71,1.63-7.99,1.27-11.38-.95-3.39-2.22-5.43-5.99-5.43-10.04V48.51c0-4.05,2.04-7.83,5.43-10.04,1.98-1.3,4.27-1.96,6.57-1.96Zm36.59,41.13l-24.59-10.77v117.03l24.59-10.78v-95.48Z"/>
</svg>