<?xml version="1.0" encoding="UTF-8"?>
<svg id="Layer_1" data-name="Layer 1" xmlns="http://www.w3.org/2000/svg" viewBox="0 0 1067.78 1067.78">
  <defs>
    <style>
      .cls-1 {
        fill: #fff;
      }

      .cls-2 {
        fill: #23b1b2;
        fill-rule: evenodd;
      }
    </style>
  </defs>
  <path class="cls-2" d="m533.88,1067.78c294.07,0,533.91-239.84,533.91-533.9S827.94,0,533.88,0,0,239.84,0,533.88s239.84,533.9,533.88,533.9h0Z"/>
  <path class="cls-1" d="m610.67,417.94c-9.86,0-17.83-7.97-17.83-17.83s7.97-17.83,17.83-17.83h114.49c9.86,0,17.83,7.99,17.83,17.83v382.56c0,9.84-7.97,17.83-17.83,17.83h-382.56c-9.84,0-17.83-7.99-17.83-17.83v-382.56c0-9.84,7.99-17.83,17.83-17.83h114.52c9.84,0,17.83,7.99,17.83,17.83s-7.99,17.83-17.83,17.83h-96.69v346.9h346.9v-346.9h-96.66Z"/>
  <path class="cls-1" d="m547.4,203.02c-3.26-3.8-8.11-6.21-13.52-6.21s-10.23,2.41-13.49,6.21l-100.21,100.18c-6.97,6.92-7,18.17-.08,25.14,6.92,6.94,18.2,7,25.14.06l70.81-70.78v294.55c0,9.87,7.99,17.83,17.83,17.83s17.83-7.96,17.83-17.83v-294.55l70.84,70.78c6.95,6.94,18.2,6.89,25.12-.06,6.94-6.97,6.92-18.23-.06-25.14l-100.21-100.18Z"/>
</svg>